<?xml version="1.0" encoding="utf-8"?>
<!-- Generator: Adobe Illustrator 27.9.0, SVG Export Plug-In . SVG Version: 6.00 Build 0)  -->
<svg version="1.1" id="レイヤー_1" xmlns="http://www.w3.org/2000/svg" xmlns:xlink="http://www.w3.org/1999/xlink" x="0px"
	 y="0px" viewBox="0 0 16 16" style="enable-background:new 0 0 16 16;" xml:space="preserve">
<style type="text/css">
	.st0{fill:#FFFFFF;}
</style>
<rect x="-0.72" y="-0.72" width="17.43" height="17.43"/>
<path class="st0" d="M3.04,4.44v4.37c0,2.17,1.27,4.01,2.84,4.91l0,0c0.77,0.45,1.47,0.49,1.98,0.21l0,0c0,0,1.65-0.96,2.25-1.31
	c1.42-0.82,2.85-1.66,2.85-4.49c0-1.24,0-3.96,0-3.96l0,0c0-0.6-0.36-1.19-1.11-1.62c-1.58-0.91-4.13-0.87-5.76,0.12L3.04,4.44z
	 M4.45,5.25 M7.35,3.58c0.77-0.47,2.17-0.63,2.92-0.2c1.02,0.56,0.67,1.38-0.1,1.85L7.29,6.89l0,0v3.28L5.16,8.94l1.59-0.92
	c0.17-0.1,0.23-0.32,0.13-0.49C6.79,7.36,6.57,7.3,6.4,7.4L4.45,8.53V5.25L7.35,3.58z M5.87,12.24L5.87,12.24
	c-0.78-0.45-1.42-1.55-1.42-2.46V9.35l2.84,1.64v0.43C7.29,12.32,6.66,12.69,5.87,12.24z M12.04,9.69c-0.12,0.38-0.29,0.7-0.53,0.99
	c-0.2,0.25-0.45,0.48-0.77,0.71c-0.31,0.22-0.67,0.43-0.99,0.61c-0.25,0.14-0.67,0.39-1.09,0.63c0.03-0.17,0.04-0.36,0.04-0.56V7.71
	l0,0l2.98-1.72c0.21-0.12,0.4-0.26,0.56-0.4l0,2.55C12.25,8.73,12.18,9.25,12.04,9.69z"/>
</svg>
